<svg version="1.2" xmlns="http://www.w3.org/2000/svg" viewBox="0 0 1400 1400" width="1400" height="1400">
	<style>
		.s0 { fill: #13a0e3 } 
		.s1 { fill: #ee9a11 } 
		.s2 { fill: #e7f7fd } 
	</style>
	<g id="Background">
		<path id="Path 0" class="s0" d="m0 700v700h1400v-1400h-1400z"/>
		<path id="Path 1" class="s1" d="m944 357.47c-5.23 0.75-13.1 2.11-17.5 3.01-4.4 0.9-13.17 3.23-19.5 5.17-6.33 1.95-16.23 5.47-22 7.82-5.77 2.36-14.55 6.29-19.5 8.73-4.95 2.44-13.63 7.34-19.3 10.87-5.66 3.54-14.44 9.71-19.5 13.72-5.06 4-10.24 8.5-11.5 10-1.62 1.91-2.18 3.6-1.88 5.71 0.23 1.65 3.46 8.4 7.18 15 3.72 6.6 8.73 15.04 11.13 18.75 2.63 4.06 5.07 6.76 6.12 6.77 0.96 0 6.92-4.27 13.25-9.51 6.33-5.23 14.65-11.72 18.5-14.41 3.85-2.69 11.73-7.38 17.5-10.44 5.77-3.06 14.55-7.12 19.5-9.03 4.95-1.92 13.05-4.66 18-6.09 4.95-1.44 12.6-3.25 17-4.02 4.4-0.77 14.75-1.9 23-2.51 11.03-0.83 17.91-0.83 26-0.01 6.05 0.62 15.73 2.03 21.5 3.14 5.77 1.11 17.03 4.16 25 6.78 7.97 2.62 19.22 7.04 25 9.82 5.78 2.78 14.55 7.74 19.5 11.01 4.95 3.28 11.72 8.17 15.05 10.86 3.33 2.69 9.11 7.59 12.85 10.89 3.74 3.3 10.43 10.27 14.87 15.5 4.44 5.22 11.2 14.22 15.02 20 3.81 5.77 9.8 16.35 13.29 23.5 3.5 7.15 8.35 19.08 10.79 26.5 2.44 7.42 5.38 18 6.55 23.5 1.16 5.5 2.63 18.1 3.27 28 0.88 13.72 0.88 20.85-0.02 30-0.64 6.6-2.24 16.5-3.53 22-1.3 5.5-3.39 13.6-4.64 18-1.24 4.4-3.59 11.15-5.21 15-1.61 3.85-4.1 10.15-5.52 14-2.53 6.87-2.55 7.07-0.81 10.5 0.97 1.92 5.38 8.9 9.8 15.5 4.41 6.6 9.42 13.75 11.13 15.89 1.71 2.13 3.9 4.27 4.86 4.75 0.96 0.47 2.54 0.64 3.5 0.37 0.96-0.26 3.74-3.52 6.18-7.25 2.44-3.72 7.67-13.51 11.62-21.76 3.95-8.25 8.78-19.73 10.74-25.5 1.96-5.78 4.54-14.33 5.73-19 1.19-4.67 3.04-13.9 4.1-20.5 1.12-7 2.18-20.13 2.54-31.5 0.39-12.17 0.18-24.01-0.55-31.5-0.64-6.6-2.5-18.53-4.12-26.5-1.62-7.98-4.51-19.45-6.41-25.5-1.91-6.05-5.77-16.4-8.58-23-2.81-6.6-7.62-16.73-10.68-22.5-3.07-5.78-8.05-14.33-11.07-19-3.03-4.68-8.32-12.1-11.77-16.5-3.45-4.4-10.25-12.34-15.12-17.65-4.87-5.31-13.17-13.41-18.44-18-5.27-4.59-14.5-11.79-20.5-15.99-6.01-4.2-14.97-9.94-19.92-12.76-4.95-2.82-14.62-7.65-21.5-10.75-6.87-3.09-16.33-6.93-21-8.52-4.67-1.59-13-4.04-18.5-5.44-5.5-1.41-14.73-3.47-20.5-4.59-8.45-1.64-15.47-2.1-36-2.37-17.98-0.24-28.3 0.07-35 1.04z"/>
		<path id="Path 2" class="s2" d="m694.5 316.21c-1.65 0.57-4.46 2.11-6.25 3.42-1.79 1.3-4.99 4.96-7.11 8.12-2.12 3.16-10.38 17-18.35 30.75-7.98 13.75-20.25 35.13-27.28 47.5-7.02 12.38-19.3 33.98-27.28 48-7.98 14.02-18.2 32.02-22.72 40-4.52 7.98-14.21 25.08-21.53 38-7.33 12.92-17.23 30.25-22 38.5-4.78 8.25-14.01 24.45-20.51 36-6.5 11.55-16.97 29.77-23.26 40.5-6.29 10.73-12.04 20.4-12.77 21.5-1.23 1.86-1.85 1.18-8.71-9.5-4.07-6.33-14.97-23.65-24.23-38.5-9.25-14.85-21.18-33.52-26.49-41.5-5.32-7.98-11.21-16.25-13.09-18.38-1.88-2.13-5.22-4.81-7.42-5.96-2.85-1.49-5.86-2.09-10.5-2.09-4.47 0-7.59 0.59-10 1.88-1.93 1.04-5.52 4-8 6.59-2.48 2.58-13.01 18.59-23.4 35.58-10.4 16.98-24.3 39.66-30.9 50.38-6.6 10.73-15.59 25.35-19.99 32.5-4.4 7.15-13.49 22-20.2 33-6.71 11-20.29 33.27-30.19 49.5-9.9 16.23-28.05 45.92-40.33 66-12.28 20.08-32.89 53.83-45.81 75-12.92 21.17-28.96 47.5-35.66 58.5-6.69 11-16.37 26.75-21.5 35-5.13 8.25-11.81 19.05-14.83 24-3.03 4.95-8.42 13.95-11.98 20-5.75 9.76-6.54 11.73-6.98 17.5-0.28 3.58-0.02 8.08 0.57 10 0.6 1.92 3.02 5.56 5.39 8.07 3.05 3.23 5.91 5.09 9.81 6.38 3.95 1.31 6.91 1.64 10.5 1.17 2.75-0.35 6.8-1.7 9-2.99 2.2-1.29 5.94-5 8.32-8.24 2.38-3.24 8.4-12.42 13.38-20.39 4.98-7.97 17.6-28.45 28.05-45.5 10.45-17.05 22.85-37.3 27.54-45 4.7-7.7 12.69-20.75 17.77-29 5.07-8.25 13.03-21.3 17.69-29 4.65-7.7 15.11-24.8 23.24-38 8.13-13.2 21.89-35.48 30.58-49.5 8.69-14.02 16.85-26.54 18.12-27.82l2.31-2.32c20.36 3.89 24.6 4.22 30 3.67 3.85-0.4 9.7-1.58 13-2.62 3.3-1.04 8.14-3.13 10.76-4.65 2.62-1.52 7.5-5.46 10.84-8.76 3.35-3.3 9.79-10.95 14.32-17 4.52-6.05 9.65-12.24 11.4-13.75 1.75-1.51 4.42-3.03 5.93-3.37 1.69-0.39 6.59 0.44 12.75 2.14 7.33 2.03 13.37 2.93 22.64 3.37l12.64 0.61c-5.07 10.08-13.96 26.27-23.03 42.5-9.06 16.23-20.45 36.25-25.31 44.5-4.86 8.25-11.36 19.5-14.46 25-3.09 5.5-6.8 12.92-8.24 16.5-1.44 3.58-3.11 8.75-3.73 11.5-0.61 2.75-1.12 11.08-1.13 18.5-0.02 7.42 0.46 15.64 1.05 18.25 0.59 2.61 2.61 8.24 4.5 12.5 1.89 4.26 4.67 10 6.18 12.75 1.51 2.75 6.61 8.9 11.32 13.67 7.54 7.63 9.84 9.27 19.07 13.68 5.77 2.76 13.43 5.81 17 6.78 4.61 1.26 10.13 1.77 19 1.76 9.86-0.01 14.19-0.48 20.5-2.24 4.4-1.23 11.6-4 16-6.15 4.4-2.15 11.15-6.53 15-9.73 3.85-3.2 9.93-9.69 13.5-14.43 3.58-4.74 10.04-15.3 14.36-23.48 4.32-8.17 13.35-25.44 20.06-38.36 6.71-12.92 14.82-27.77 18.01-33 3.19-5.23 8.56-13.32 11.93-17.99 3.38-4.66 11.31-13.68 17.64-20.03 6.33-6.36 14.88-14.29 19-17.64 4.13-3.34 12.45-9.3 18.5-13.24 6.05-3.94 16.85-10.05 24-13.57 7.15-3.53 17.05-7.58 22-8.99 4.95-1.42 10.01-2.57 11.25-2.56 1.66 0.01 2.25 0.61 2.26 2.27 0 1.24-1.99 14.17-4.44 28.75-2.44 14.58-7.17 41.58-10.5 60-3.34 18.42-7.2 41.15-8.6 50.5-1.4 9.35-2.8 23.3-3.12 31-0.32 7.7-0.07 20.75 0.57 29 0.63 8.25 2.07 18.6 3.21 23 1.13 4.4 3.17 10.92 4.52 14.5 1.35 3.58 3.84 9.2 5.53 12.5 1.68 3.3 4.74 8.48 6.79 11.5 2.06 3.03 6.2 8.42 9.2 12 3.01 3.58 9.26 9.56 13.9 13.29 4.64 3.74 11.81 8.78 15.93 11.22 4.13 2.43 11.44 6.01 16.25 7.95 4.81 1.95 13.36 4.87 19 6.5 5.64 1.62 15.65 3.99 22.25 5.25l12 2.29c495.59 0 533.56-0.2 537-1.44 2.2-0.79 5.73-3.04 7.85-5 2.12-1.96 4.8-5.14 5.95-7.06 1.67-2.78 2.07-4.95 1.92-10.5-0.1-3.85-0.7-8.58-1.34-10.5-0.64-1.92-4.41-8.67-8.38-15-3.97-6.33-18.43-28.6-32.14-49.5-13.72-20.9-43.73-66.8-66.71-102-22.98-35.2-55.53-85.15-72.34-111-16.81-25.85-40.93-62.98-53.6-82.5-12.67-19.52-26.6-41.12-30.95-48-4.35-6.87-10.02-14.69-12.59-17.36-2.57-2.68-6.25-5.54-8.17-6.37-2.2-0.95-6.28-1.47-11-1.39-5.93 0.1-8.34 0.62-11.5 2.48-2.2 1.29-5.63 4.56-7.63 7.25-2 2.69-7.37 10.52-11.93 17.39-4.57 6.88-13.32 20.38-19.45 30-6.13 9.63-16.45 25.83-22.94 36-6.48 10.17-12.74 19.52-13.92 20.78-1.17 1.25-2.47 2.26-2.88 2.25-0.41-0.02-2.48-2.84-4.6-6.28-2.11-3.44-9.82-17.05-17.12-30.25-7.3-13.2-27.22-48.75-44.27-79-17.05-30.25-33.35-59.05-36.24-64-2.88-4.95-9.87-17.33-15.54-27.5-5.67-10.17-15.93-28.4-22.81-40.5-6.87-12.1-18.4-32.57-25.61-45.5-7.21-12.92-24.12-43.06-37.58-66.97-19.85-35.24-25.52-44.54-29.98-49.11-3.69-3.79-6.82-6.02-9.5-6.78-2.2-0.62-6.48-1.1-9.5-1.06-3.02 0.04-6.85 0.55-8.5 1.13z"/>
		<path id="Path 3" fill-rule="evenodd" class="s0" d="m704 389.02c0.27-0.03 2.02 2.55 3.87 5.72 1.86 3.17 12.02 20.84 22.57 39.26 10.56 18.43 25.96 45.43 34.23 60 8.28 14.58 20.03 35.5 26.13 46.5 6.1 11 11.79 21.69 12.65 23.75 1.55 3.75 1.55 3.75-0.95 3.75-1.37 0-5.76-1.71-9.75-3.8-3.99-2.09-10.62-5.65-14.75-7.9-4.12-2.26-9.08-4.43-11-4.82-1.92-0.39-6.2-0.42-9.5-0.08-4.23 0.45-7.33 1.51-10.5 3.59-2.48 1.63-7.31 5.23-10.75 7.99-4.09 3.28-7.2 5.02-9 5.03-1.51 0-3.76-0.67-5-1.5-1.24-0.83-4.8-6.12-7.92-11.76-3.12-5.64-7.55-12.95-9.84-16.25-2.29-3.3-6.15-7.63-8.58-9.63-2.42-2-6.32-4.58-8.66-5.75-2.34-1.17-7.51-2.64-11.5-3.28-5.57-0.9-8.64-0.89-13.25 0.03-3.3 0.66-8.69 2.42-11.99 3.91-3.29 1.5-10.26 5.83-15.5 9.62-5.23 3.8-11.53 7.98-14.01 9.28-2.48 1.3-5.06 2.36-5.75 2.34-0.94-0.01-1-0.7-0.24-2.77 0.55-1.51 4.29-8.6 8.31-15.75 4.02-7.15 15.22-26.73 24.89-43.5 9.68-16.77 21.74-37.7 26.8-46.5 5.07-8.8 12.84-22.07 17.26-29.5 4.42-7.42 8.76-14.5 9.64-15.72 0.87-1.22 1.82-2.24 2.09-2.26zm-35 164.44c1.92 0.28 4.63 1.34 6 2.37 1.37 1.02 3.4 3.24 4.5 4.94 1.1 1.69 4.25 7.04 7 11.88 2.87 5.05 7.76 11.64 11.5 15.49 4.61 4.75 8.53 7.66 13.5 10.02 6.44 3.07 7.76 3.34 16.5 3.3 7.73-0.03 10.34-0.45 14-2.24 2.48-1.22 7.42-4.7 11-7.74 3.58-3.04 7.4-5.78 8.5-6.08q2-0.56 10 4.39c4.4 2.72 10.25 6.09 13 7.49 2.75 1.4 8.15 3.09 12 3.77 4.47 0.79 10.71 1 27.5-0.05l1.89 2.75c1.04 1.51 7.19 11.98 13.67 23.25 6.48 11.28 15.69 27.48 20.47 36 4.77 8.53 14.05 24.95 20.62 36.5 6.56 11.55 19.79 35.09 29.39 52.31 9.6 17.22 19.71 34.3 22.46 37.96 3.58 4.76 6.42 7.35 10 9.15 2.75 1.38 7.02 2.7 9.5 2.93 2.48 0.24 6.75-0.12 9.5-0.79 2.75-0.68 9.27-3.66 14.5-6.64 6.07-3.45 11.94-5.95 16.25-6.91 3.71-0.83 8.33-1.51 10.25-1.51 1.92 0 5.98 0.9 9 2 3.7 1.34 6.27 3.07 7.84 5.25 1.29 1.79 5.22 8.59 8.75 15.11 4.05 7.5 8.44 14 11.91 17.66 3.34 3.52 7.66 6.81 11 8.36 3.03 1.41 7.53 2.87 10 3.23 2.58 0.39 6.64 0.15 9.5-0.54 2.75-0.67 8.83-3.43 22-11.07l24 11.5h14c7.7 0 14.56 0.34 15.25 0.75 0.69 0.41 8.83 12.11 18.1 26 9.26 13.89 32.96 49.77 52.66 79.75 19.69 29.98 39.84 60.8 44.76 68.5 4.92 7.7 9.58 15.24 10.34 16.75 0.76 1.51 1.13 3.09 0.81 3.5-0.32 0.41-107.76 0.75-238.75 0.75-226.88 0-238.62-0.09-247.67-1.83-5.23-1.01-13.1-2.97-17.5-4.36-4.4-1.39-11.15-4.09-15-6.01-3.85-1.92-9.02-4.98-11.5-6.78-2.48-1.81-7.62-6.61-11.44-10.66-4.19-4.44-8.04-9.74-9.73-13.36-1.53-3.3-3.7-9.6-4.82-14-1.13-4.4-2.53-12.05-3.13-17-0.6-4.95-0.8-12.6-0.44-17 0.35-4.4 1.56-14.97 2.67-23.5 1.12-8.52 3.79-25.85 5.94-38.5 2.15-12.65 5.45-31.33 7.32-41.5 1.88-10.17 6.22-33.35 9.65-51.5 3.42-18.15 6.73-33.31 7.35-33.69 0.62-0.38 4.05-0.98 7.63-1.32 3.58-0.35 14.83-0.13 25 0.49 10.17 0.62 25.48 2.04 34 3.16 8.52 1.11 18.27 2.32 27.81 3.36l1.03-4c0.56-2.2 2.45-13 4.18-24 2.63-16.65 2.94-20.2 1.82-21.22-0.74-0.67-6.74-2.11-13.34-3.2-6.6-1.09-16.73-2.56-22.5-3.28-7.09-0.88-23.96-1.3-52-1.3-38.98 0.01-42.26 0.15-54 2.31-6.88 1.26-18.58 3.82-26 5.69-7.42 1.87-16.65 4.51-20.5 5.85-3.85 1.35-10.04 3.62-13.75 5.05-3.71 1.43-12.04 5.25-18.5 8.48-6.46 3.24-16.25 8.69-21.75 12.13-5.5 3.43-14.27 9.42-19.5 13.3-5.23 3.87-15.69 13.04-23.25 20.37-7.56 7.33-14.09 13.33-14.5 13.34-0.41 0.01-3.39-6.18-6.63-13.75-3.23-7.57-10.58-23.22-26.77-55.77l1.94-4c1.07-2.2 15.34-27.4 31.72-56 16.38-28.6 32.9-57.4 36.72-64 3.81-6.6 7.71-12.84 8.66-13.86 1.49-1.6 3.16-1.84 12.17-1.71 8.15 0.11 11.98-0.33 17.44-2.01 3.85-1.18 8.58-2.95 10.5-3.93 1.92-0.99 8.23-5.27 14-9.52 5.77-4.25 12.3-8.58 14.5-9.63 2.6-1.23 5.22-1.71 7.5-1.38zm-272.95 69.54c0.52 0 4.03 4.61 7.79 10.25 3.76 5.64 14.48 22.17 23.83 36.75 9.35 14.58 18.2 28.64 19.66 31.25 1.47 2.61 2.51 5.31 2.32 6-0.19 0.69-3 2.03-6.25 2.99-3.24 0.96-7.92 1.74-10.4 1.75-2.48 0-12.15-1.39-21.5-3.09-15.39-2.8-17.57-2.98-23-1.9-3.3 0.65-8.48 2.37-11.5 3.82-3.02 1.44-8.37 5.34-11.89 8.65-3.51 3.32-9.57 10.53-13.46 16.03-3.9 5.5-8.9 11.94-11.12 14.3-2.22 2.37-5.94 5.18-8.28 6.25-2.34 1.07-5.6 1.95-7.25 1.95-1.65 0-4.58-0.67-10-3l3.67-6.75c2.02-3.71 9.96-17.1 17.64-29.75 7.68-12.65 22.95-37.85 33.93-56 10.98-18.15 21.07-34.46 22.41-36.25 1.34-1.79 2.87-3.25 3.4-3.25zm651.31 62.22c0.63 0.19 4.74 5.83 9.14 12.53 4.4 6.7 18.58 28.66 31.5 48.8 12.92 20.14 26.08 40.74 29.23 45.78 3.16 5.04 5.74 9.51 5.75 9.92 0.01 0.41-0.77 0.74-1.73 0.74-0.96-0.01-6.47-2.28-12.25-5.05-5.78-2.76-12.08-5.29-14-5.6-1.92-0.32-5.75-0.24-8.5 0.18-3.66 0.55-7.08 2.19-12.75 6.12-4.26 2.95-8.2 5.36-8.75 5.36-0.55 0-2.38-1.91-4.07-4.25-1.69-2.34-5.85-9.16-9.25-15.16-3.73-6.59-8.55-13.38-12.18-17.15-4.05-4.22-8.11-7.25-12.5-9.33-3.58-1.7-8.75-3.51-11.5-4.03-2.75-0.52-6.69-1.2-12.5-2.08l2.71-4.75c1.49-2.61 7.64-12.4 13.66-21.75 6.02-9.35 14.53-22.32 18.9-28.81 4.37-6.5 8.46-11.66 9.09-11.47zm-556.48 83.96c0.84 1.28 3.17 5.92 5.18 10.32 2.01 4.4 4.81 11.6 6.23 16 1.42 4.4 3.16 10.7 3.86 14 0.7 3.3 1.28 11.85 1.28 19 0 12.52-0.15 13.43-3.94 24.5-2.16 6.33-8.47 20.73-14.02 32-5.55 11.27-12.2 23.76-14.78 27.75-2.58 3.99-7.28 9.75-10.44 12.8-3.64 3.51-7.4 6.1-10.25 7.04-2.47 0.81-6.97 1.49-10 1.5-3.02 0.02-7.52-0.7-10-1.59-2.47-0.88-5.96-2.71-7.75-4.06-1.79-1.34-4.66-5.25-6.38-8.69-2.47-4.92-3.24-7.95-3.65-14.25-0.38-6.05-0.07-9.34 1.28-13.5 0.98-3.02 5.24-11.58 9.48-19 4.23-7.42 17.5-30.6 29.5-51.5 11.99-20.9 24.3-41.74 27.34-46.32 5.49-8.25 5.55-8.3 7.06-6z"/>
	</g>
</svg>